#N canvas 82 81 350 342 12;
#X obj 92 119 clip~ 0 1;
#X obj 97 279 sqrt~;
#X obj 98 204 cos~;
#X obj 97 253 *~ 0.5;
#X obj 97 228 +~ 1;
#X obj 98 177 *~ 0.5;
#X obj 164 119 *~ -1;
#X obj 164 148 +~ 1;
#X obj 164 276 sqrt~;
#X obj 165 201 cos~;
#X obj 164 250 *~ 0.5;
#X obj 164 225 +~ 1;
#X obj 165 174 *~ 0.5;
#X obj 7 45 inlet~;
#X obj 35 83 *~;
#X obj 84 44 inlet~;
#X obj 64 84 *~;
#X obj 15 134 outlet~;
#X obj 103 78 inlet~;
#X text -1 314 const power crossfade;
#X text 180 315 Thanapat Ogaslert 2024;
#X text 5 22 source 1;
#X text 82 23 source 2;
#X text 153 79 <~~ crossfade (sig~ 0-1);
#X connect 0 0 5 0;
#X connect 0 0 6 0;
#X connect 1 0 14 1;
#X connect 2 0 4 0;
#X connect 3 0 1 0;
#X connect 4 0 3 0;
#X connect 5 0 2 0;
#X connect 6 0 7 0;
#X connect 7 0 12 0;
#X connect 8 0 16 1;
#X connect 9 0 11 0;
#X connect 10 0 8 0;
#X connect 11 0 10 0;
#X connect 12 0 9 0;
#X connect 13 0 14 0;
#X connect 14 0 17 0;
#X connect 15 0 16 0;
#X connect 16 0 17 0;
#X connect 18 0 0 0;
